Motion_pl07
version=1
nRows=13
nColumns=43
inDegrees=yes
endheader
time	pelvis_tilt	pelvis_list	pelvis_rotation	pelvis_tx	pelvis_ty	pelvis_tz	hip_flexion_r	hip_adduction_r	hip_rotation_r	knee_angle_r	ankle_angle_r	subtalar_angle_r	mtp_angle_r	hip_flexion_l	hip_adduction_l	hip_rotation_l	knee_angle_l	ankle_angle_l	subtalar_angle_l	mtp_angle_l	lumbar_extension	lumbar_bending	lumbar_rotation	neck_flexion	neck_lateral_bending	neck_rotation	arm_flex_r	arm_add_r	arm_rot_r	elbow_flex_r	pro_sup_r	wrist_flex_r	wrist_dev_r	hand_finger_flex_r	arm_flex_l	arm_add_l	arm_rot_l	elbow_flex_l	pro_sup_l	wrist_flex_l	wrist_dev_l	hand_finger_flex_l
      1.24750000	      5.29549226	    -15.16348270	     98.67614792	      0.02315801	      0.69421456	      0.34438544	     67.73539399	    -12.52781562	    -13.40176287	    -91.70292448	     31.83036335	     12.45671615	      5.38781529	     72.34380222	    -13.12620246	      3.75720455	    -89.60030904	     33.94322020	     13.15481481	     -6.93467305	    -43.87889159	      3.91288393	      2.26483278	     18.45432906	      4.30695958	      2.00187579	     26.48395723	    -30.32486314	      2.18170451	     63.43598781	    103.03347791	    -17.93257770	    -14.01181801	     39.66449144	     27.47064446	    -37.26985808	      9.22419110	     66.96800671	    124.74377489	    -30.26093132	      3.26454335	     89.03085307
      1.25000000	      5.20861103	    -15.04146346	     98.65139135	      0.02295052	      0.69714356	      0.34326335	     67.18123039	    -12.54749735	    -13.46483220	    -91.19389120	     31.94774976	     12.59409838	      5.12895333	     71.74690242	    -13.10274345	      3.57100019	    -89.08243132	     33.88314268	     13.06608335	     -6.86130933	    -43.81196089	      3.88016754	      2.18729785	     18.55949644	      4.28342106	      2.03121462	     25.42115375	    -30.02300270	      1.13987047	     63.18066024	    103.49446421	    -17.40790210	    -14.32094204	     39.52082168	     26.12250451	    -37.12513166	      8.12971365	     66.85098209	    124.59601053	    -29.92763334	      3.17062125	     88.52863025
      1.25250000	      5.18579051	    -14.92866815	     98.66141788	      0.02291314	      0.69991451	      0.34216640	     66.67357499	    -12.51752705	    -13.56901168	    -90.72118071	     31.79887705	     12.60248632	      5.05799201	     71.22920993	    -13.12158566	      3.45421934	    -88.60382418	     33.75904288	     13.01739806	     -6.85270761	    -43.59598840	      3.86121298	      2.19416802	     18.01782087	      4.35946289	      2.03044644	     24.37396623	    -29.76999340	      0.42455765	     62.75445047	    103.36517055	    -17.55029013	    -14.24557903	     39.42266206	     25.06857304	    -37.03377207	      7.62284880	     66.46634935	    124.43343618	    -29.94988699	      3.26277883	     88.45447951
      1.25500000	      5.14470585	    -14.81737070	     98.65255919	      0.02281806	      0.70271188	      0.34104584	     66.15904087	    -12.49137641	    -13.65983613	    -90.23988718	     31.75340702	     12.60820876	      4.99725171	     70.68675102	    -13.13578542	      3.30879314	    -88.10557354	     33.66928014	     12.94401591	     -6.83961707	    -43.41388076	      3.83254347	      2.21272875	     17.65251775	      4.41106931	      2.02407859	     23.31024405	    -29.55003809	     -0.31848396	     62.39105858	    103.24915062	    -17.65353758	    -14.24436203	     39.33765044	     23.99526790	    -36.87051500	      7.00416573	     66.09724845	    124.21816196	    -30.01128274	      3.32452173	     88.35828269
      1.25750000	      5.10208282	    -14.68493294	     98.64071761	      0.02280386	      0.70543914	      0.33991417	     65.63592413	    -12.44968504	    -13.74052839	    -89.76624010	     31.71548268	     12.62766097	      4.93314736	     70.14017974	    -13.15507194	      3.16863799	    -87.63115142	     33.58071600	     12.85335103	     -6.82404384	    -43.24705919	      3.78937397	      2.24405498	     17.32572999	      4.44712064	      2.00807813	     22.24058693	    -29.30814693	     -1.11078096	     62.04616520	    103.14055313	    -17.72876516	    -14.28277822	     39.25203337	     22.88281006	    -36.70204354	      6.33459082	     65.76957005	    123.96962697	    -30.08877819	      3.34233437	     88.24554344
      1.26000000	      5.06197311	    -14.58308232	     98.59904273	      0.02264437	      0.70817585	      0.33875344	     65.12713518	    -12.40328037	    -13.81135522	    -89.27556529	     31.67656254	     12.65004737	      4.86779005	     69.61831290	    -13.17661610	      3.04245874	    -87.16962882	     33.48667052	     12.76746567	     -6.80771359	    -43.07298858	      3.75842433	      2.25988184	     17.05023626	      4.47270226	      1.99231044	     21.19570229	    -29.09168203	     -1.84551123	     61.69607825	    103.06028657	    -17.76281869	    -14.33138161	     39.16859278	     21.79892290	    -36.55357465	      5.70480441	     65.46491305	    123.71334692	    -30.16204763	      3.32060594	     88.12719214
      1.26250000	      5.02126564	    -14.47131834	     98.56005987	      0.02257425	      0.71083590	      0.33759611	     64.62062381	    -12.34220107	    -13.87650160	    -88.79366648	     31.63736632	     12.66867188	      4.79801664	     69.10430659	    -13.19763767	      2.92122965	    -86.72738925	     33.39422562	     12.67377894	     -6.78942613	    -42.89282915	      3.71513988	      2.28823432	     16.76576931	      4.49488021	      1.97804394	     20.16046506	    -28.85854408	     -2.59914073	     61.33728638	    102.98916553	    -17.78161721	    -14.38597558	     39.06967588	     20.69665949	    -36.39557579	      5.05593970	     65.16614051	    123.42239532	    -30.24363491	      3.26528043	     87.99497567
      1.26500000	      4.99770820	    -14.37068734	     98.53409439	      0.02255379	      0.71350842	      0.33644609	     64.14033450	    -12.27155159	    -13.95358006	    -88.32596765	     31.59025960	     12.68021574	      4.73187663	     68.59227735	    -13.25029483	      2.77633528	    -86.24510905	     33.28331849	     12.58675280	     -6.77374797	    -42.70294027	      3.68291187	      2.32070648	     16.45234732	      4.52143876	      1.96221202	     19.13891535	    -28.61825106	     -3.32704001	     60.97990037	    102.91449226	    -17.81180193	    -14.42802567	     38.96132582	     19.61462383	    -36.24243399	      4.43504094	     64.88228487	    123.11633895	    -30.33347539	      3.19983822	     87.86870340
      1.26750000	      4.96804771	    -14.27035435	     98.49717339	      0.02253391	      0.71612603	      0.33529948	     63.66093051	    -12.19068180	    -14.01073011	    -87.85177112	     31.54417531	     12.68345610	      4.66492177	     68.09237048	    -13.28956957	      2.64951981	    -85.78838618	     33.17757655	     12.49649457	     -6.75786005	    -42.50783097	      3.64119613	      2.35776021	     16.14858104	      4.54601100	      1.94635511	     18.13030607	    -28.37756066	     -4.05072511	     60.60928056	    102.84610397	    -17.84153017	    -14.46447221	     38.83448022	     18.53428053	    -36.08292165	      3.81919451	     64.60321500	    122.77883133	    -30.43049757	      3.11604446	     87.73469977
      1.27000000	      4.93788186	    -14.16812768	     98.45441900	      0.02252006	      0.71870539	      0.33415096	     63.18508697	    -12.10638274	    -14.06304503	    -87.38893166	     31.49651624	     12.68009039	      4.59575281	     67.59810850	    -13.33490468	      2.51944136	    -85.34119013	     33.07003407	     12.40423599	     -6.74182895	    -42.31058431	      3.59712327	      2.39519296	     15.84136372	      4.57253470	      1.92909359	     17.13304270	    -28.12669998	     -4.77567105	     60.23357086	    102.78457299	    -17.87154074	    -14.49762850	     38.68401779	     17.45499934	    -35.92263694	      3.20692957	     64.33790892	    122.40579103	    -30.53290381	      3.01292443	     87.59059422
      1.27250000	      4.88494251	    -14.05504150	     98.38754429	      0.02247894	      0.72123219	      0.33299428	     62.69134606	    -12.01969692	    -14.08526596	    -86.90198268	     31.46006007	     12.66865557	      4.50548445	     67.10691083	    -13.34859315	      2.41484569	    -84.95013096	     32.98140594	     12.29880792	     -6.71762035	    -42.12449508	      3.53264294	      2.42263303	     15.57637501	      4.59138553	      1.91961479	     16.16159510	    -27.86068368	     -5.52766462	     59.84647713	    102.77328137	    -17.84375840	    -14.55044619	     38.46487858	     16.35011350	    -35.75400659	      2.55579938	     64.08356314	    121.93250580	    -30.63238365	      2.83577887	     87.38984186
      1.27500000	      4.85990116	    -13.96135054	     98.35204915	      0.02249971	      0.72380461	      0.33185276	     62.23887391	    -11.93631239	    -14.14388496	    -86.45226628	     31.40025699	     12.66053687	      4.42701321	     66.61529243	    -13.41850893	      2.25168352	    -84.47899999	     32.85287113	     12.21827612	     -6.70116052	    -41.92096971	      3.49066314	      2.45499544	     15.24628147	      4.62945268	      1.90368271	     15.20240945	    -27.59776580	     -6.21989145	     59.46817724	    102.73821095	    -17.86189269	    -14.56879784	     38.25398273	     15.29045670	    -35.61383919	      2.00075974	     63.85391069	    121.50743796	    -30.72215652	      2.70106576	     87.22774110
      1.27750000	      4.81725476	    -13.85831738	     98.29960255	      0.02249428	      0.72635676	      0.33072813	     61.77193575	    -11.84557764	    -14.17194324	    -85.98037710	     31.34947865	     12.64532713	      4.34514364	     66.11855950	    -13.45565472	      2.10526574	    -84.03421481	     32.74077153	     12.13007361	     -6.68347420	    -41.72551655	      3.43117118	      2.48830497	     14.93129133	      4.67197571	      1.88659942	     14.25512903	    -27.33008382	     -6.93096479	     59.07590698	    102.70958086	    -17.87937279	    -14.58654706	     38.00983195	     14.23653219	    -35.45601751	      1.43004478	     63.62126593	    121.03850393	    -30.81520459	      2.55638255	     87.04909363
